<?xml version="1.0" standalone="no"?>
<!DOCTYPE svg PUBLIC "-//W3C//DTD SVG 20010904//EN"
 "http://www.w3.org/TR/2001/REC-SVG-20010904/DTD/svg10.dtd">
<svg version="1.0" xmlns="http://www.w3.org/2000/svg"
 width="225.000000pt" height="225.000000pt" viewBox="0 0 225.000000 225.000000"
 preserveAspectRatio="xMidYMid meet">
<metadata>
Created by potrace 1.10, written by Peter Selinger 2001-2011
</metadata>
<g transform="translate(0.000000,225.000000) scale(0.100000,-0.100000)"
fill="#000000" stroke="none">
<path d="M1114 1904 c-66 -120 -263 -472 -375 -672 -60 -106 -109 -193 -109
-195 0 -1 69 -1 153 1 l153 3 157 282 c86 155 170 304 186 331 l30 50 -24 40
c-13 23 -48 83 -78 135 l-55 93 -38 -68z m96 -94 c6 -4 13 -20 16 -36 3 -16
12 -36 20 -46 14 -14 14 -20 1 -45 -8 -15 -13 -33 -10 -38 2 -6 -5 -20 -16
-31 -25 -27 -52 -80 -44 -87 3 -4 -4 -5 -15 -2 -15 2 -19 0 -15 -11 3 -7 -2
-16 -10 -20 -9 -3 -13 -13 -10 -24 3 -11 -4 -31 -15 -45 -12 -15 -26 -42 -32
-61 -6 -19 -15 -32 -20 -29 -5 3 -11 -9 -15 -26 -4 -17 -9 -28 -12 -25 -7 6
-43 -63 -43 -82 0 -7 -5 -10 -12 -6 -6 4 -8 3 -4 -4 3 -6 -5 -28 -19 -49 -32
-46 -40 -54 -31 -28 4 11 3 16 -1 11 -4 -4 -8 -17 -8 -29 0 -20 -5 -22 -102
-23 -96 -1 -103 0 -103 18 0 11 9 33 21 49 11 16 17 29 14 29 -11 0 26 54 43
64 12 7 12 10 1 17 -11 7 -11 9 -1 9 11 0 34 40 36 63 1 4 6 11 11 15 6 4 23
32 39 62 16 30 41 68 55 84 14 16 20 26 12 21 -9 -5 -12 -3 -9 6 3 8 11 13 17
12 6 -2 10 0 8 5 -1 4 7 27 17 50 13 30 24 41 34 37 12 -4 12 -3 3 9 -9 11 -8
15 4 20 8 3 15 11 15 18 0 9 -3 8 -10 -2 -7 -10 -10 -11 -10 -2 0 7 7 15 15
18 8 4 12 10 9 15 -3 5 -1 9 4 9 6 0 20 25 33 55 12 30 25 52 29 50 3 -2 12
12 19 31 7 19 17 32 22 29 5 -4 9 2 9 12 1 12 9 5 25 -21 13 -21 28 -42 35
-46z"/>
<path d="M1309 1448 l-75 -132 129 -231 c71 -126 154 -276 185 -332 l57 -102
153 -1 154 0 -25 43 c-51 87 -363 646 -426 764 -36 67 -68 122 -71 122 -3 1
-39 -59 -81 -131z m101 14 c0 -7 5 -10 12 -6 6 4 8 3 4 -4 -3 -6 -1 -16 6 -24
26 -27 43 -52 31 -44 -7 4 -13 3 -13 -3 0 -6 9 -15 20 -21 11 -6 20 -19 20
-30 0 -10 7 -23 16 -28 10 -5 16 -23 17 -47 1 -21 3 -33 5 -27 4 12 32 -9 32
-23 0 -4 14 -26 31 -51 16 -24 27 -49 23 -56 -4 -7 -3 -8 4 -4 8 5 12 -1 12
-14 0 -12 4 -18 10 -15 6 4 9 3 8 -2 -4 -13 43 -103 53 -103 5 0 4 -10 -2 -22
-11 -20 -11 -22 3 -10 19 15 31 2 22 -22 -3 -9 -1 -16 5 -16 6 0 19 -16 28
-35 9 -19 21 -35 27 -35 6 0 4 -5 -4 -10 -10 -6 -11 -10 -2 -10 6 0 12 -7 12
-15 0 -13 10 -19 30 -17 3 0 5 -11 5 -26 -1 -15 3 -32 7 -38 12 -16 -44 -23
-109 -15 -34 5 -54 4 -57 -3 -3 -8 -7 -8 -13 0 -4 6 -15 13 -24 16 -9 4 -23
20 -30 37 -7 16 -17 27 -22 24 -5 -3 -6 4 -2 16 4 14 1 23 -9 27 -9 3 -16 11
-16 16 0 5 -8 22 -19 36 -10 15 -21 40 -25 55 -4 17 -11 25 -18 21 -7 -5 -9 0
-6 14 4 12 3 20 -1 18 -4 -3 -15 11 -26 30 -10 19 -22 34 -27 34 -5 0 -6 10
-3 21 5 13 3 19 -3 15 -11 -7 -25 21 -17 35 4 5 -1 6 -9 3 -9 -3 -16 -1 -16 5
0 22 -2 26 -14 41 -21 25 -31 44 -18 36 8 -5 10 -2 6 8 -3 9 -10 13 -15 10 -5
-3 -14 15 -21 40 -6 25 -15 43 -18 41 -4 -3 -12 6 -18 20 -6 13 -8 25 -4 27
11 5 52 66 52 78 0 5 5 10 10 10 6 0 10 5 10 10 0 6 7 27 16 48 15 35 16 36
30 18 8 -11 14 -26 14 -34z"/>
<path d="M1120 1178 c-18 -35 -45 -82 -61 -106 -16 -24 -29 -47 -29 -53 0 -5
55 -9 130 -9 72 0 130 3 130 8 0 4 -10 23 -23 42 -13 19 -41 68 -62 108 -22
39 -42 72 -46 72 -3 0 -21 -28 -39 -62z m80 -73 c0 -13 3 -16 8 -8 6 9 11 7
20 -7 9 -14 9 -21 0 -26 -8 -5 -5 -10 8 -15 11 -4 -15 -8 -64 -8 -61 -1 -81 2
-76 11 5 8 2 9 -9 5 -24 -9 -21 -3 18 40 19 21 35 43 35 50 0 40 59 -1 60 -42z"/>
<path d="M541 893 c-7 -16 -38 -73 -69 -128 -32 -55 -58 -103 -60 -107 -2 -5
237 -8 532 -8 l535 0 -81 135 -81 135 -382 0 -382 0 -12 -27z m765 -27 c8 -8
11 -21 8 -29 -3 -8 -1 -18 5 -22 7 -3 8 0 5 9 -3 9 -4 16 -1 16 3 0 23 -36 46
-80 39 -77 44 -99 14 -62 -11 12 -13 13 -10 2 4 -13 -48 -15 -432 -12 -240 1
-442 4 -448 7 -10 3 -10 10 -1 30 6 14 15 25 20 25 4 0 8 5 8 11 0 5 -6 7 -12
4 -7 -4 -5 0 5 8 9 8 17 22 17 32 0 11 5 15 16 11 9 -3 12 -2 9 5 -4 5 1 21 9
34 l16 25 356 0 c294 0 358 -2 370 -14z"/>
<path d="M254 438 c-9 -29 -25 -74 -35 -100 -15 -39 -16 -48 -5 -48 8 0 18 9
21 20 5 14 15 20 37 20 21 0 31 -6 35 -20 3 -13 14 -20 29 -20 13 0 24 3 24 8
1 23 -66 192 -76 192 -7 0 -20 -24 -30 -52z m35 -75 c1 -6 -7 -9 -19 -6 -24 6
-23 4 -9 40 l12 28 7 -25 c5 -14 8 -30 9 -37z"/>
<path d="M385 425 c30 -54 35 -71 29 -100 -6 -33 -5 -35 20 -35 24 0 26 3 26
45 0 31 9 59 30 95 34 58 35 60 17 60 -7 0 -23 -21 -36 -47 l-23 -47 -20 47
c-18 41 -24 47 -50 47 l-30 0 37 -65z"/>
<path d="M575 478 c-2 -7 -18 -50 -35 -96 -35 -97 -34 -92 -15 -92 8 0 15 9
15 20 0 16 7 20 34 20 26 0 36 -5 41 -20 4 -13 15 -20 32 -20 16 0 23 4 19 13
-2 6 -17 51 -33 99 -26 81 -47 108 -58 76z m17 -93 c4 -19 1 -25 -13 -25 -21
0 -22 4 -13 37 8 28 20 22 26 -12z"/>
<path d="M690 390 c0 -85 2 -100 16 -100 13 0 15 10 12 60 -1 33 -1 60 3 60 3
0 25 -27 50 -60 24 -32 47 -58 52 -57 4 1 9 46 11 100 2 76 0 97 -11 97 -9 0
-13 -17 -13 -62 l0 -62 -46 62 c-65 88 -74 84 -74 -38z"/>
<path d="M1000 476 c0 -9 7 -12 20 -9 19 5 20 0 20 -86 0 -84 1 -91 20 -91 19
0 20 7 20 91 0 86 1 91 20 86 13 -3 20 0 20 9 0 10 -15 14 -60 14 -45 0 -60
-4 -60 -14z"/>
<path d="M1150 390 c0 -93 1 -100 20 -100 17 0 20 7 20 46 0 44 1 45 28 42 24
-3 27 -7 27 -43 0 -34 3 -40 23 -43 19 -3 22 1 22 34 0 21 -7 45 -15 54 -14
15 -14 18 0 30 40 33 -4 80 -75 80 l-50 0 0 -100z m85 66 c25 -18 13 -46 -20
-46 -21 0 -25 5 -25 30 0 33 15 38 45 16z"/>
<path d="M1346 402 c-16 -48 -31 -93 -34 -99 -2 -7 1 -13 8 -13 6 0 14 9 17
20 4 15 14 20 38 20 24 0 34 -5 38 -20 3 -14 14 -20 31 -20 14 0 26 1 26 3 -5
32 -71 193 -81 194 -9 2 -24 -26 -43 -85z m37 -40 c-21 -5 -25 2 -17 34 l7 29
13 -30 c10 -25 10 -31 -3 -33z"/>
<path d="M1492 393 l3 -98 35 -2 c19 -1 49 5 67 12 l33 14 0 75 c0 88 -8 96
-90 96 l-51 0 3 -97z m86 68 c9 -5 12 -27 10 -72 -3 -60 -5 -64 -28 -67 -25
-3 -25 -2 -23 70 1 40 2 74 3 76 1 5 26 1 38 -7z"/>
<path d="M1670 393 l0 -98 55 -2 c43 -2 55 1 55 12 0 10 -11 15 -35 15 l-35 0
0 50 c0 49 1 50 25 44 19 -5 25 -2 25 10 0 10 -9 16 -25 16 -16 0 -25 6 -25
16 0 13 8 15 35 12 24 -3 35 0 35 9 0 9 -17 13 -55 13 l-55 0 0 -97z"/>
<path d="M1810 390 c0 -93 1 -100 20 -100 17 0 20 7 20 45 0 41 2 45 24 45 29
0 35 -13 28 -57 -4 -30 -2 -33 22 -33 23 0 26 4 26 33 0 18 -7 42 -15 54 -13
18 -13 22 0 33 40 33 -4 80 -75 80 l-50 0 0 -100z m84 67 c23 -17 11 -47 -20
-47 -20 0 -24 5 -24 30 0 32 15 38 44 17z"/>
<path d="M1995 466 c-21 -31 -11 -51 44 -91 22 -16 41 -36 41 -42 0 -19 -50
-16 -72 4 -23 20 -33 12 -19 -16 25 -46 113 -31 119 21 3 21 -7 34 -47 68 -28
24 -48 47 -45 51 10 17 52 9 67 -13 19 -29 34 -16 19 17 -10 21 -19 25 -52 25
-31 0 -43 -5 -55 -24z"/>
</g>
</svg>
