<?xml version="1.0" standalone="no"?>
<!DOCTYPE svg PUBLIC "-//W3C//DTD SVG 20010904//EN"
 "http://www.w3.org/TR/2001/REC-SVG-20010904/DTD/svg10.dtd">
<svg version="1.0" xmlns="http://www.w3.org/2000/svg"
 width="168.000000pt" height="300.000000pt" viewBox="0 0 168.000000 300.000000"
 preserveAspectRatio="xMidYMid meet">
<metadata>
Created by potrace 1.10, written by Peter Selinger 2001-2011
</metadata>
<g transform="translate(0.000000,300.000000) scale(0.100000,-0.100000)"
fill="#000000" stroke="none">
<path d="M1051 2087 c0 -16 -5 -26 -10 -22 -15 8 -25 -16 -26 -60 -1 -22 -2
-58 -3 -80 -2 -37 -4 -38 -17 -21 -7 10 -18 15 -23 12 -5 -3 -12 4 -15 16 -4
12 -9 19 -12 16 -7 -6 -65 49 -65 62 0 5 -17 22 -37 37 -21 15 -41 33 -46 40
-5 7 -17 9 -35 4 -15 -4 -33 -6 -41 -3 -8 3 -12 -1 -9 -9 3 -8 18 -15 34 -17
22 -3 62 -36 167 -140 l138 -137 -2 135 -1 135 31 3 31 3 0 -297 0 -298 -30
29 c-29 28 -30 32 -30 120 l0 91 -175 174 c-96 95 -175 178 -176 184 0 6 -4 1
-10 -12 -7 -20 -3 -29 29 -59 20 -20 28 -30 17 -23 -15 11 -17 11 -8 1 6 -7
22 -19 35 -25 12 -7 22 -17 21 -22 -1 -5 11 -18 27 -29 16 -11 33 -30 39 -42
6 -13 17 -23 25 -23 8 0 18 -9 21 -21 4 -12 12 -18 21 -15 8 3 20 -5 28 -22 8
-15 28 -40 45 -55 26 -24 30 -35 29 -73 -2 -38 -5 -44 -24 -44 -22 0 -51 25
-37 32 4 3 3 3 -4 2 -16 -4 -45 25 -37 37 3 5 -7 14 -21 19 -16 6 -23 14 -19
22 4 6 3 8 -4 4 -6 -3 -22 5 -37 18 -17 16 -22 25 -13 28 7 3 0 11 -17 19 -17
9 -29 21 -27 28 2 9 -3 11 -14 7 -12 -4 -15 -2 -11 9 4 8 2 17 -4 20 -5 4 -7
10 -4 14 2 5 -6 6 -19 4 -19 -4 -25 1 -34 26 -6 17 -16 31 -22 31 -6 0 -8 -6
-4 -12 5 -10 4 -10 -5 -2 -7 6 -13 20 -14 32 -1 17 -4 19 -16 9 -12 -9 -13 -9
-7 1 4 6 2 12 -3 12 -6 0 -10 6 -9 13 2 6 -3 11 -10 9 -8 -1 -11 2 -7 7 3 6
-4 15 -15 21 -11 6 -20 15 -20 21 0 13 -41 48 -55 49 -5 0 -3 -5 5 -11 12 -9
12 -10 -3 -5 -10 3 -21 6 -23 6 -3 0 -3 4 1 9 3 5 1 12 -5 16 -5 3 -10 1 -10
-5 0 -6 -9 -23 -20 -38 -19 -25 -21 -42 -21 -173 1 -349 7 -589 14 -589 4 0 7
-7 7 -15 0 -8 4 -15 10 -15 6 0 9 145 7 400 -1 220 1 400 4 400 3 0 155 -150
337 -334 l332 -333 -3 334 -2 334 30 -3 30 -3 0 -285 c0 -157 -1 -335 -3 -395
l-3 -111 -327 328 c-179 180 -329 328 -332 328 -4 0 -5 -14 -2 -31 2 -16 1
-163 -3 -325 -7 -275 -8 -294 -26 -294 -10 0 -20 -4 -23 -9 -8 -12 4 -41 16
-41 6 0 8 6 5 14 -4 9 3 13 24 12 16 -1 29 -5 29 -9 0 -4 9 -3 21 3 24 14 32
9 23 -14 -3 -9 -11 -13 -17 -9 -19 11 -47 11 -47 -1 0 -6 -4 -4 -10 4 -7 11
-11 8 -20 -15 -11 -29 -12 -29 -26 -11 -13 18 -14 15 -14 -36 0 -37 -5 -60
-15 -68 -8 -7 -12 -17 -8 -23 3 -6 1 -7 -5 -3 -6 3 -16 -3 -22 -15 -7 -12 -8
-19 -2 -15 5 3 12 -3 15 -14 3 -11 1 -18 -4 -14 -5 3 -9 -2 -9 -11 0 -9 6 -15
13 -13 10 4 65 132 80 191 4 12 15 17 39 17 33 0 33 -1 67 -93 18 -50 36 -98
38 -104 4 -9 -5 -13 -26 -13 -20 0 -31 5 -31 14 0 17 -22 26 -61 26 -26 0 -34
-9 -30 -32 0 -5 -15 -8 -35 -8 -42 0 -42 -20 -1 -31 18 -5 25 -4 21 3 -5 7 2
9 19 4 16 -4 29 -1 33 6 5 8 1 9 -12 5 -18 -7 -18 -6 1 8 17 14 20 14 28 -1 8
-14 11 -14 18 -3 7 11 9 11 9 -2 0 -12 9 -15 34 -15 19 1 38 5 42 9 13 13 44
7 44 -8 0 -8 7 -15 15 -15 8 0 15 4 15 10 0 5 7 7 16 3 24 -9 47 25 89 134 38
99 41 103 70 103 29 0 32 -4 68 -99 20 -54 37 -101 37 -104 0 -4 -13 -7 -30
-7 -23 0 -30 4 -30 20 0 17 -6 20 -41 18 -31 -1 -43 -6 -47 -20 -3 -12 -14
-18 -32 -18 -19 0 -29 -6 -33 -20 -4 -16 -2 -18 13 -10 10 6 28 10 39 10 12 0
21 5 21 10 0 6 5 10 11 10 5 0 7 -6 3 -12 -5 -9 -2 -9 9 1 9 7 17 10 17 5 0
-5 4 -3 9 5 7 11 11 9 20 -8 7 -12 16 -19 22 -16 5 4 9 2 9 -4 0 -5 12 -5 30
2 25 9 33 9 39 -2 6 -9 11 -10 15 -2 11 18 29 13 22 -6 -4 -10 6 -2 22 17 l29
34 14 -22 c8 -12 19 -22 26 -22 7 0 13 -6 13 -12 0 -7 5 -5 11 5 5 9 17 17 25
17 9 0 22 7 30 15 12 12 12 15 2 15 -11 0 -11 2 0 9 10 6 12 27 8 79 -3 49 -1
72 7 75 7 3 -1 17 -20 37 -18 17 -33 25 -33 18 0 -8 -4 -7 -11 4 -5 9 -16 15
-24 12 -8 -4 -13 -10 -10 -14 3 -4 -2 -13 -10 -20 -12 -10 -15 -9 -15 4 0 9
-4 16 -10 16 -5 0 -10 -6 -10 -12 0 -9 -3 -8 -10 2 -7 11 -5 17 8 22 11 4 5 7
-18 8 -30 0 -32 2 -17 11 10 6 21 9 24 6 2 -3 18 -1 34 3 16 5 27 6 25 2 -2
-4 7 -7 19 -7 16 0 26 7 29 20 3 11 8 189 12 395 3 206 8 376 9 378 2 2 -7 14
-19 26 -23 25 -76 43 -76 26 0 -5 -7 -10 -15 -10 -8 0 -15 7 -15 15 0 8 -9 15
-21 15 -11 0 -18 -4 -14 -9 3 -5 1 -12 -4 -15 -5 -4 -12 2 -14 11 -3 11 -5 7
-6 -10z m-211 -522 c157 -157 286 -289 288 -294 2 -5 -14 -7 -35 -4 -32 4 -55
21 -148 113 l-110 108 -112 4 -113 3 0 -111 0 -112 -30 -4 -30 -5 0 294 c0
161 1 293 3 293 2 0 131 -128 287 -285z m-16 -110 c7 -8 16 -12 19 -9 3 3 3
-5 0 -18 -6 -21 -5 -22 12 -8 17 14 18 13 12 -2 -4 -13 -2 -16 11 -11 9 3 14
2 9 -2 -9 -10 22 -47 34 -39 5 3 6 -3 2 -12 -5 -14 -3 -16 11 -11 13 5 17 3
13 -7 -4 -10 -1 -13 9 -9 8 3 14 -1 14 -11 0 -9 5 -16 11 -16 5 0 7 -5 4 -10
-4 -6 -11 -8 -16 -5 -5 3 -6 -1 -3 -9 3 -9 11 -13 16 -10 6 4 15 0 20 -7 6
-10 7 -6 2 11 -6 22 -5 24 10 11 9 -8 15 -20 12 -28 -4 -10 -1 -11 14 -3 16 8
18 7 15 -7 -2 -10 -6 -26 -10 -35 -6 -15 -2 -18 23 -18 27 0 33 -6 65 -72 l35
-73 1 73 c1 70 2 72 26 72 l25 0 0 -105 0 -105 -32 0 c-31 1 -35 5 -63 65 -16
36 -32 65 -35 65 -3 0 -3 -29 -2 -65 l4 -65 -29 0 -28 0 3 93 c1 51 -1 104 -7
118 l-9 24 -10 -27 c-13 -33 -32 -46 -24 -16 3 14 2 19 -6 14 -7 -4 -12 -2
-12 4 0 6 -4 8 -10 5 -5 -3 -10 -2 -10 2 0 5 -18 14 -40 20 -31 8 -40 7 -40
-2 0 -7 -7 -16 -16 -19 -11 -4 -15 -2 -11 8 3 8 -1 13 -11 12 -9 0 -16 4 -15
9 1 6 -7 11 -17 11 -10 0 -16 -4 -14 -8 3 -4 -4 -8 -15 -8 -14 0 -19 -5 -15
-15 5 -11 2 -13 -11 -9 -10 4 -21 1 -27 -7 -7 -10 -8 -5 -3 16 6 29 6 29 -10
10 -16 -20 -16 -19 -11 5 3 14 3 19 0 12 -5 -10 -9 -10 -22 0 -14 12 -14 10
-2 -12 10 -21 10 -23 -1 -12 -15 14 -33 16 -25 3 4 -5 0 -12 -6 -14 -7 -3 -1
-6 13 -6 20 -1 33 -11 51 -42 l24 -40 27 52 c15 29 27 48 27 41 0 -7 11 -12
25 -12 14 0 25 -2 25 -5 0 -3 -18 -31 -40 -62 -31 -46 -40 -67 -40 -100 0 -41
-1 -43 -30 -43 -29 0 -30 1 -24 38 5 33 0 46 -39 104 -34 52 -42 70 -34 84 8
14 7 16 -6 11 -12 -4 -14 -2 -10 11 4 9 12 22 18 28 6 6 12 53 14 105 1 51 4
96 7 100 9 15 162 9 178 -6z"/>
<path d="M610 1630 l0 -80 84 0 84 0 -81 80 c-45 44 -83 80 -84 80 -2 0 -3
-36 -3 -80z"/>
<path d="M532 1101 c-14 -39 -12 -44 16 -39 17 3 18 6 7 38 l-12 34 -11 -33z"/>
<path d="M898 1115 c-3 -11 -9 -27 -12 -36 -5 -12 0 -18 18 -21 29 -6 31 3 12
47 -11 26 -13 28 -18 10z"/>
</g>
</svg>
